<svg xmlns="http://www.w3.org/2000/svg" version="1.1" xmlns:xlink="http://www.w3.org/1999/xlink" xmlns:svgjs="http://svgjs.dev/svgjs" width="2000" height="1247" viewBox="0 0 2000 1247"><g transform="matrix(1,0,0,1,-1.2121212121212466,0.504858299595071)"><svg viewBox="0 0 396 247" data-background-color="#ffffff" preserveAspectRatio="xMidYMid meet" height="1247" width="2000" xmlns="http://www.w3.org/2000/svg" xmlns:xlink="http://www.w3.org/1999/xlink"><g id="tight-bounds" transform="matrix(1,0,0,1,0.2400000000000091,-0.09999999999999432)"><svg viewBox="0 0 395.52 247.2" height="247.2" width="395.52"><g><svg></svg></g><g><svg viewBox="0 0 395.52 247.2" height="247.2" width="395.52"><mask id="be320b07-b677-4518-be14-834a8823d693"><rect width="395.52" height="247.2" fill="white"></rect><g transform="matrix(1,0,0,1,54.33480597014923,37.08)" id="clone"><svg viewBox="0 0 286.8503880597015 173.04" height="173.04" width="286.8503880597015"><g><svg viewBox="0 0 286.8503880597015 173.04" height="173.04" width="286.8503880597015"><g><svg viewBox="0 0 286.8503880597015 173.04" height="173.04" width="286.8503880597015"><g><svg viewBox="0 0 286.8503880597015 173.04" height="173.04" width="286.8503880597015"><g id="SvgjsG1027"><svg viewBox="0 0 286.8503880597015 173.04" height="173.04" width="286.8503880597015" id="SvgjsSvg1026"><g><svg viewBox="0 0 286.8503880597015 173.04" height="173.04" width="286.8503880597015"><g transform="matrix(1,0,0,1,0,0)"><svg width="286.8503880597015" viewBox="-2.65 -39.15 84.29 51.25" height="173.04" data-palette-color="url(#ecab1726-3fc0-4703-b946-146d479c145a)"><path d="M0.35 0L13.65-34.3 19.7-34.3 33 0 27.95 0 24.5-9.15 8.6-9.15 5.25 0 0.35 0ZM10.15-13.3L22.95-13.3 18.95-24 16.65-30.2 16.4-30.2 14.15-24.1 10.15-13.3ZM47.85-31.25L47.85-36.15 52.25-36.15 52.25-31.25 47.85-31.25ZM46.75 9.1Q45 9.1 43.3 8.5L43.3 8.5 43.3 5.65 45.5 5.65Q47.85 5.65 47.85 3.25L47.85 3.25 47.85-26.3 52.25-26.3 52.25 3.05Q52.25 5.65 50.97 7.38 49.7 9.1 46.75 9.1L46.75 9.1ZM67.94 0.6Q64.29 0.6 61.87-0.48 59.44-1.55 58.29-3.3 57.14-5.05 57.14-7.1L57.14-7.1Q57.14-7.7 57.17-7.93 57.19-8.15 57.19-8.2L57.19-8.2 61.54-8.2 61.54-7.7Q61.54-5.35 63.39-4.17 65.24-3 68.19-3L68.19-3Q70.74-3 72.42-4.03 74.09-5.05 74.09-6.9L74.09-6.9Q74.09-8.35 73.14-9.28 72.19-10.2 70.79-10.73 69.39-11.25 66.99-11.85L66.99-11.85Q64.09-12.6 62.27-13.35 60.44-14.1 59.17-15.58 57.89-17.05 57.89-19.4L57.89-19.4Q57.89-22.85 60.72-24.88 63.54-26.9 68.34-26.9L68.34-26.9Q71.34-26.9 73.54-25.93 75.74-24.95 76.87-23.33 77.99-21.7 77.99-19.7L77.99-19.7 77.94-18.75 73.64-18.75 73.64-19.2Q73.64-20.95 72.27-22.1 70.89-23.25 67.84-23.25L67.84-23.25Q64.84-23.25 63.64-22.18 62.44-21.1 62.44-19.7L62.44-19.7Q62.44-18.55 63.29-17.8 64.14-17.05 65.39-16.6 66.64-16.15 68.89-15.6L68.89-15.6Q71.99-14.8 73.94-14.03 75.89-13.25 77.27-11.68 78.64-10.1 78.64-7.5L78.64-7.5Q78.64-3.45 75.72-1.43 72.79 0.6 67.94 0.6L67.94 0.6Z" opacity="1" transform="matrix(1,0,0,1,0,0)" fill="black" class="wordmark-text-0" id="SvgjsPath1025" stroke-width="5" stroke="black" stroke-linejoin="round"></path></svg></g></svg></g></svg></g></svg></g></svg></g></svg></g></svg></g></mask><g mask="url(#be320b07-b677-4518-be14-834a8823d693)"><g><path d="M54.876 212.606l70.253-181.181h31.958l70.253 181.181h-26.675l-18.223-48.333h-83.988l-17.695 48.333zM106.642 142.352h67.612l-21.129-56.52-12.149-32.75h-1.32l-11.885 32.222zM288.614 215.775c-16.551 0-29.316-4.402-38.296-13.206-8.98-8.804-13.47-21.569-13.47-38.296v0-6.603h25.091v7.924c0 9.508 2.289 16.674 6.867 21.498 4.578 4.86 11.181 7.289 19.808 7.29v0c8.804 0 15.495-2.782 20.073-8.346 4.578-5.529 6.867-13.751 6.867-24.668v0-129.943h25.09v128.622c0 18.488-4.49 32.398-13.469 41.73-8.98 9.332-21.833 13.998-38.561 13.998z" fill="#ff0033" fill-rule="nonzero" stroke="none" stroke-width="1" stroke-linecap="butt" stroke-linejoin="miter" stroke-miterlimit="10" stroke-dasharray="" stroke-dashoffset="0" font-family="none" font-weight="none" font-size="none" text-anchor="none" style="mix-blend-mode: normal" data-fill-palette-color="tertiary"></path></g></g><g transform="matrix(1,0,0,1,54.33480597014923,37.08)"><svg viewBox="0 0 286.8503880597015 173.04" height="173.04" width="286.8503880597015"><g><svg viewBox="0 0 286.8503880597015 173.04" height="173.04" width="286.8503880597015"><g><svg viewBox="0 0 286.8503880597015 173.04" height="173.04" width="286.8503880597015"><g><svg viewBox="0 0 286.8503880597015 173.04" height="173.04" width="286.8503880597015"><g id="textblocktransform"><svg viewBox="0 0 286.8503880597015 173.04" height="173.04" width="286.8503880597015" id="textblock"><g><svg viewBox="0 0 286.8503880597015 173.04" height="173.04" width="286.8503880597015"><g transform="matrix(1,0,0,1,0,0)"><svg width="286.8503880597015" viewBox="-2.65 -39.15 84.29 51.25" height="173.04" data-palette-color="url(#ecab1726-3fc0-4703-b946-146d479c145a)"></svg></g></svg></g></svg></g></svg></g></svg></g></svg></g></svg></g></svg></g><defs></defs><mask id="999db086-f443-4348-9503-3f7822a10123"><g id="SvgjsG1037"><svg viewBox="0 0 395.52 247.2" height="247.2" width="395.52"><g><svg></svg></g><g><svg viewBox="0 0 395.52 247.2" height="247.2" width="395.52"><mask id="SvgjsMask1036"><g transform="matrix(1,0,0,1,54.33480597014923,37.08)" id="SvgjsG1035"><svg viewBox="0 0 286.8503880597015 173.04" height="173.04" width="286.8503880597015"><g><svg viewBox="0 0 286.8503880597015 173.04" height="173.04" width="286.8503880597015"><g><svg viewBox="0 0 286.8503880597015 173.04" height="173.04" width="286.8503880597015"><g><svg viewBox="0 0 286.8503880597015 173.04" height="173.04" width="286.8503880597015"><g id="SvgjsG1034"><svg viewBox="0 0 286.8503880597015 173.04" height="173.04" width="286.8503880597015" id="SvgjsSvg1033"><g><svg viewBox="0 0 286.8503880597015 173.04" height="173.04" width="286.8503880597015"><g transform="matrix(1,0,0,1,0,0)"><svg width="286.8503880597015" viewBox="-2.65 -39.15 84.29 51.25" height="173.04" data-palette-color="url(#ecab1726-3fc0-4703-b946-146d479c145a)"></svg></g></svg></g></svg></g></svg></g></svg></g></svg></g></svg></g></mask><g mask="url(#be320b07-b677-4518-be14-834a8823d693)"><g></g></g><g transform="matrix(1,0,0,1,54.33480597014923,37.08)"><svg viewBox="0 0 286.8503880597015 173.04" height="173.04" width="286.8503880597015"><g><svg viewBox="0 0 286.8503880597015 173.04" height="173.04" width="286.8503880597015"><g><svg viewBox="0 0 286.8503880597015 173.04" height="173.04" width="286.8503880597015"><g><svg viewBox="0 0 286.8503880597015 173.04" height="173.04" width="286.8503880597015"><g id="SvgjsG1031"><svg viewBox="0 0 286.8503880597015 173.04" height="173.04" width="286.8503880597015" id="SvgjsSvg1030"><g><svg viewBox="0 0 286.8503880597015 173.04" height="173.04" width="286.8503880597015"><g transform="matrix(1,0,0,1,0,0)"><svg width="286.8503880597015" viewBox="-2.65 -39.15 84.29 51.25" height="173.04" data-palette-color="url(#ecab1726-3fc0-4703-b946-146d479c145a)"><path d="M0.35 0L13.65-34.3 19.7-34.3 33 0 27.95 0 24.5-9.15 8.6-9.15 5.25 0 0.35 0ZM10.15-13.3L22.95-13.3 18.95-24 16.65-30.2 16.4-30.2 14.15-24.1 10.15-13.3ZM47.85-31.25L47.85-36.15 52.25-36.15 52.25-31.25 47.85-31.25ZM46.75 9.1Q45 9.1 43.3 8.5L43.3 8.5 43.3 5.65 45.5 5.65Q47.85 5.65 47.85 3.25L47.85 3.25 47.85-26.3 52.25-26.3 52.25 3.05Q52.25 5.65 50.97 7.38 49.7 9.1 46.75 9.1L46.75 9.1ZM67.94 0.6Q64.29 0.6 61.87-0.48 59.44-1.55 58.29-3.3 57.14-5.05 57.14-7.1L57.14-7.1Q57.14-7.7 57.17-7.93 57.19-8.15 57.19-8.2L57.19-8.2 61.54-8.2 61.54-7.7Q61.54-5.35 63.39-4.17 65.24-3 68.19-3L68.19-3Q70.74-3 72.42-4.03 74.09-5.05 74.09-6.9L74.09-6.9Q74.09-8.35 73.14-9.28 72.19-10.2 70.79-10.73 69.39-11.25 66.99-11.85L66.99-11.85Q64.09-12.6 62.27-13.35 60.44-14.1 59.17-15.58 57.89-17.05 57.89-19.4L57.89-19.4Q57.89-22.85 60.72-24.88 63.54-26.9 68.34-26.9L68.34-26.9Q71.34-26.9 73.54-25.93 75.74-24.95 76.87-23.33 77.99-21.7 77.99-19.7L77.99-19.7 77.94-18.75 73.64-18.75 73.64-19.2Q73.64-20.95 72.27-22.1 70.89-23.25 67.84-23.25L67.84-23.25Q64.84-23.25 63.64-22.18 62.44-21.1 62.44-19.7L62.44-19.7Q62.44-18.55 63.29-17.8 64.14-17.05 65.39-16.6 66.64-16.15 68.89-15.6L68.89-15.6Q71.99-14.8 73.94-14.03 75.89-13.25 77.27-11.68 78.64-10.1 78.64-7.5L78.64-7.5Q78.64-3.45 75.72-1.43 72.79 0.6 67.94 0.6L67.94 0.6Z" opacity="1" transform="matrix(1,0,0,1,0,0)" fill="white" class="wordmark-text-0" id="SvgjsPath1029"></path></svg></g></svg></g></svg></g></svg></g></svg></g></svg></g></svg></g></svg></g><defs><mask></mask></defs></svg></g></mask><linearGradient x1="0" x2="1" y1="0.548" y2="0.55" id="ecab1726-3fc0-4703-b946-146d479c145a"><stop stop-color="#ff6cab" offset="0"></stop><stop stop-color="#7366ff" offset="1"></stop></linearGradient><rect width="395.52" height="247.2" fill="url(#ecab1726-3fc0-4703-b946-146d479c145a)" mask="url(#999db086-f443-4348-9503-3f7822a10123)" data-fill-palette-color="primary"></rect></svg><rect width="395.52" height="247.2" fill="none" stroke="none" visibility="hidden"></rect></g></svg></g></svg>